<?xml version="1.0" encoding="UTF-8"?>
<svg xmlns="http://www.w3.org/2000/svg" viewBox="0 0 1600 2200" role="img" aria-labelledby="title desc">
  <title id="title">Blanc's Music Studio Google review QR code</title>
  <desc id="desc">A QR code card inviting customers to review Blanc's Music Studio on Google Maps.</desc>
  <rect width="1600" height="2200" fill="#f8f4ec"/>
  <rect x="90" y="90" width="1420" height="2020" rx="54" fill="#fffaf2" stroke="#d9d0c2" stroke-width="8"/>
  <circle cx="800" cy="330" r="138" fill="#334c3d"/>
  <text x="800" y="385" text-anchor="middle" fill="#fffaf2" font-family="Georgia, 'Times New Roman', serif" font-size="170" font-weight="700">B</text>
  <text x="800" y="570" text-anchor="middle" fill="#17201b" font-family="Georgia, 'Times New Roman', serif" font-size="86" font-weight="700">Blanc's Music Studio</text>
  <text x="800" y="665" text-anchor="middle" fill="#334c3d" font-family="Arial, Helvetica, sans-serif" font-size="44" font-weight="800" letter-spacing="3">SUZUKI PIANO AND VIOLIN</text>
  <text x="800" y="800" text-anchor="middle" fill="#17201b" font-family="Georgia, 'Times New Roman', serif" font-size="72" font-weight="700">Enjoyed your lesson?</text>
  <text x="800" y="885" text-anchor="middle" fill="#5f685f" font-family="Arial, Helvetica, sans-serif" font-size="44">Scan to open Google Maps</text>
  <text x="800" y="945" text-anchor="middle" fill="#5f685f" font-family="Arial, Helvetica, sans-serif" font-size="44">and leave an honest review.</text>
  <rect x="330" y="1040" width="940" height="940" rx="34" fill="#fffaf2" stroke="#b98a46" stroke-width="12"/>
  <svg x="380" y="1090" width="840" height="840" viewBox="0 0 45 45"><path fill="#fffaf2" d="M0 0h79v79H0z"/><path stroke="#17201b" d="M1 1.5h7m1 0h1m2 0h1m3 0h2m2 0h1m2 0h2m1 0h1m3 0h3m1 0h3m3 0h1m1 0h2m2 0h2m3 0h3m2 0h1m1 0h2m3 0h1m2 0h1m4 0h7M1 2.5h1m5 0h1m1 0h3m4 0h1m1 0h1m1 0h1m2 0h1m2 0h1m1 0h1m2 0h5m2 0h2m1 0h1m3 0h2m2 0h2m2 0h3m1 0h1m2 0h1m1 0h1m1 0h1m2 0h1m1 0h1m1 0h1m5 0h1M1 3.5h1m1 0h3m1 0h1m1 0h1m1 0h2m1 0h1m2 0h2m5 0h3m3 0h5m3 0h2m1 0h3m1 0h2m4 0h1m1 0h1m2 0h1m2 0h3m1 0h1m1 0h1m3 0h1m1 0h1m1 0h3m1 0h1M1 4.5h1m1 0h3m1 0h1m4 0h1m3 0h2m1 0h3m3 0h3m3 0h1m6 0h1m2 0h1m2 0h2m1 0h1m1 0h2m1 0h1m2 0h1m1 0h3m1 0h4m4 0h1m1 0h1m1 0h3m1 0h1M1 5.5h1m1 0h3m1 0h1m7 0h3m1 0h1m2 0h1m2 0h6m2 0h2m1 0h1m1 0h1m2 0h2m3 0h6m1 0h1m4 0h2m4 0h6m1 0h1m1 0h3m1 0h1M1 6.5h1m5 0h1m1 0h1m2 0h1m1 0h1m2 0h2m2 0h3m1 0h1m3 0h2m2 0h1m2 0h1m1 0h2m1 0h1m2 0h1m2 0h1m3 0h1m1 0h2m2 0h1m2 0h3m1 0h4m3 0h1m5 0h1M1 7.5h7m1 0h1m1 0h1m1 0h1m1 0h1m1 0h1m1 0h1m1 0h1m1 0h1m1 0h1m1 0h1m1 0h1m1 0h1m1 0h1m1 0h1m1 0h1m1 0h1m1 0h1m1 0h1m1 0h1m1 0h1m1 0h1m1 0h1m1 0h1m1 0h1m1 0h1m1 0h1m1 0h1m1 0h1m1 0h1m1 0h1m1 0h1m1 0h7M9 8.5h1m1 0h1m6 0h1m6 0h1m3 0h2m7 0h1m3 0h4m1 0h1m3 0h6m1 0h4m1 0h1m1 0h1M3 9.5h3m1 0h1m1 0h3m1 0h1m1 0h1m5 0h1m2 0h6m3 0h1m5 0h1m1 0h1m3 0h7m1 0h1m1 0h1m1 0h3m1 0h1m2 0h9m2 0h3M6 10.5h1m1 0h3m5 0h6m1 0h2m1 0h2m2 0h1m3 0h2m3 0h2m7 0h3m1 0h2m4 0h1m1 0h2m1 0h1m1 0h1m7 0h3m1 0h1M1 11.5h1m2 0h4m1 0h1m4 0h1m5 0h2m6 0h1m2 0h1m4 0h1m4 0h2m1 0h2m1 0h1m1 0h1m1 0h1m1 0h2m2 0h1m3 0h2m1 0h7m1 0h1m2 0h2M1 12.5h2m5 0h1m10 0h1m5 0h5m1 0h3m2 0h2m1 0h1m2 0h2m1 0h3m1 0h4m1 0h8m1 0h1m1 0h1m2 0h2m1 0h1m1 0h3m1 0h1M2 13.5h1m3 0h5m4 0h2m1 0h1m1 0h1m4 0h1m3 0h3m2 0h1m3 0h1m2 0h1m1 0h2m4 0h6m2 0h2m5 0h3m1 0h6m3 0h1M2 14.5h1m1 0h3m2 0h1m2 0h1m2 0h4m4 0h2m4 0h1m2 0h1m2 0h2m2 0h4m1 0h1m1 0h2m1 0h1m1 0h1m1 0h1m1 0h4m1 0h1m2 0h1m1 0h1m4 0h1m1 0h2m2 0h2M2 15.5h2m2 0h2m1 0h1m1 0h1m1 0h1m1 0h2m2 0h2m2 0h1m2 0h1m2 0h2m1 0h3m1 0h1m2 0h6m1 0h2m3 0h1m2 0h2m1 0h1m1 0h4m3 0h2m4 0h1m3 0h1M11 16.5h1m2 0h2m1 0h4m1 0h1m2 0h1m4 0h1m1 0h10m1 0h1m2 0h1m1 0h1m1 0h2m1 0h2m1 0h1m1 0h2m3 0h1m1 0h1m4 0h2m1 0h3m1 0h1M1 17.5h3m3 0h1m8 0h4m1 0h6m1 0h1m4 0h1m1 0h2m2 0h1m1 0h2m1 0h1m2 0h3m5 0h1m1 0h3m2 0h1m1 0h2m1 0h4m2 0h1M2 18.5h5m1 0h4m1 0h2m1 0h3m1 0h6m1 0h2m1 0h1m1 0h1m1 0h5m1 0h3m4 0h2m4 0h1m3 0h2m1 0h2m3 0h1m3 0h1m1 0h1m2 0h1m2 0h1M3 19.5h3m1 0h1m1 0h1m2 0h2m1 0h3m3 0h1m1 0h1m3 0h1m2 0h1m1 0h3m2 0h2m1 0h3m2 0h4m2 0h1m2 0h4m1 0h4m1 0h7m1 0h1m1 0h3M2 20.5h1m2 0h2m1 0h1m1 0h1m1 0h3m3 0h1m1 0h1m1 0h1m2 0h1m1 0h1m1 0h1m2 0h2m1 0h1m2 0h1m1 0h1m1 0h1m1 0h4m2 0h1m1 0h2m1 0h2m1 0h1m1 0h1m2 0h1m1 0h2m1 0h2m1 0h1m1 0h1m2 0h1M2 21.5h3m1 0h2m1 0h3m1 0h2m1 0h1m1 0h1m1 0h1m6 0h1m1 0h1m2 0h3m1 0h1m1 0h3m1 0h1m1 0h1m1 0h4m1 0h1m6 0h2m1 0h1m2 0h1m3 0h2m2 0h2m1 0h3M4 22.5h1m1 0h1m1 0h1m1 0h5m1 0h4m1 0h2m1 0h1m1 0h4m1 0h1m1 0h6m1 0h2m1 0h3m3 0h1m1 0h1m1 0h1m4 0h1m4 0h2m5 0h1m2 0h3m1 0h1M2 23.5h8m1 0h2m4 0h3m2 0h1m1 0h4m2 0h1m2 0h2m2 0h1m1 0h1m2 0h2m2 0h1m3 0h1m2 0h3m1 0h1m2 0h3m1 0h4m1 0h2m1 0h1m1 0h3M2 24.5h1m3 0h1m6 0h1m2 0h1m3 0h1m1 0h2m2 0h6m1 0h3m1 0h4m1 0h3m1 0h1m5 0h1m3 0h2m1 0h3m1 0h2m1 0h1m2 0h1m1 0h4m2 0h1M1 25.5h1m2 0h6m1 0h4m1 0h1m3 0h1m1 0h1m1 0h6m1 0h4m1 0h1m6 0h2m2 0h7m3 0h3m2 0h4m1 0h1m1 0h5m1 0h2M1 26.5h2m1 0h2m3 0h1m1 0h1m4 0h1m1 0h1m1 0h2m1 0h3m3 0h1m2 0h1m3 0h1m5 0h1m1 0h2m1 0h1m3 0h2m2 0h1m1 0h3m4 0h1m2 0h1m1 0h1m3 0h1m2 0h2M2 27.5h1m1 0h2m1 0h1m1 0h2m1 0h1m1 0h2m1 0h5m1 0h1m1 0h1m1 0h1m1 0h2m3 0h1m4 0h6m2 0h1m1 0h1m1 0h5m5 0h7m1 0h1m1 0h1m1 0h1m1 0h2M2 28.5h1m1 0h2m3 0h1m4 0h1m1 0h2m2 0h2m3 0h1m3 0h1m4 0h2m1 0h1m3 0h1m2 0h4m3 0h3m2 0h6m3 0h1m2 0h2m3 0h2m1 0h1M1 29.5h10m1 0h6m3 0h3m1 0h8m1 0h3m2 0h1m6 0h7m4 0h1m1 0h1m1 0h2m1 0h1m1 0h2m1 0h5m1 0h1M2 30.5h3m1 0h1m3 0h1m1 0h3m1 0h2m1 0h1m3 0h2m1 0h2m4 0h1m4 0h1m1 0h3m4 0h1m3 0h4m2 0h1m1 0h1m1 0h2m1 0h1m3 0h1m2 0h1m1 0h2m3 0h1M1 31.5h1m1 0h6m2 0h4m1 0h2m2 0h2m1 0h1m3 0h3m1 0h1m2 0h1m3 0h1m1 0h3m3 0h1m1 0h3m1 0h1m2 0h1m3 0h2m1 0h10m1 0h4M6 32.5h1m2 0h3m1 0h1m2 0h1m3 0h1m1 0h1m1 0h1m1 0h1m2 0h3m6 0h1m2 0h1m2 0h1m1 0h1m2 0h3m1 0h7m1 0h1m3 0h1m2 0h1m3 0h1m3 0h2M2 33.5h2m1 0h1m1 0h4m1 0h2m1 0h1m3 0h4m2 0h1m2 0h3m1 0h1m2 0h1m2 0h2m1 0h2m7 0h1m1 0h1m1 0h1m2 0h2m4 0h4m2 0h2m2 0h1m1 0h1M2 34.5h3m1 0h1m1 0h1m1 0h1m1 0h3m2 0h1m2 0h2m2 0h3m2 0h1m1 0h3m1 0h3m2 0h2m1 0h3m4 0h1m2 0h4m1 0h2m1 0h1m2 0h1m2 0h3m2 0h1m1 0h4M1 35.5h1m3 0h1m1 0h6m3 0h6m1 0h1m4 0h2m4 0h1m3 0h1m6 0h1m3 0h1m2 0h2m3 0h1m1 0h1m2 0h3m1 0h4m3 0h1m1 0h1M6 36.5h1m1 0h2m1 0h1m1 0h4m2 0h1m2 0h2m1 0h1m2 0h6m4 0h3m2 0h5m1 0h3m3 0h4m1 0h1m11 0h1m4 0h1M1 37.5h2m2 0h4m2 0h1m1 0h1m1 0h1m2 0h1m1 0h1m1 0h1m4 0h1m1 0h2m1 0h4m1 0h1m2 0h5m1 0h1m2 0h1m2 0h3m2 0h3m4 0h4m1 0h3m1 0h3M1 38.5h4m1 0h1m1 0h3m1 0h4m3 0h1m4 0h3m3 0h1m1 0h1m5 0h4m1 0h1m2 0h2m1 0h1m6 0h3m4 0h2m2 0h2m2 0h1m1 0h3m1 0h1M1 39.5h3m3 0h1m1 0h1m3 0h2m1 0h1m2 0h1m2 0h3m4 0h1m2 0h1m1 0h1m5 0h2m1 0h1m1 0h1m1 0h3m2 0h3m1 0h2m1 0h2m1 0h1m1 0h8m3 0h2M2 40.5h1m1 0h1m1 0h1m1 0h2m2 0h2m2 0h3m2 0h1m1 0h2m1 0h8m1 0h1m1 0h1m1 0h1m3 0h1m6 0h1m3 0h1m4 0h2m1 0h2m3 0h1m3 0h3m3 0h1M2 41.5h4m1 0h1m1 0h2m1 0h4m1 0h1m1 0h1m1 0h1m1 0h1m3 0h7m1 0h5m1 0h2m2 0h1m1 0h1m1 0h1m1 0h2m1 0h1m2 0h1m1 0h1m1 0h2m1 0h4m2 0h1m1 0h5M2 42.5h1m1 0h1m4 0h1m3 0h1m2 0h1m3 0h2m2 0h1m1 0h1m1 0h1m2 0h1m1 0h1m1 0h1m1 0h6m4 0h2m1 0h2m8 0h2m2 0h1m2 0h1m1 0h4m1 0h1m2 0h1M3 43.5h2m1 0h2m1 0h1m3 0h4m3 0h1m2 0h2m6 0h1m1 0h1m1 0h2m2 0h1m2 0h6m2 0h1m1 0h3m2 0h3m2 0h9m5 0h1M2 44.5h2m2 0h1m1 0h1m2 0h6m2 0h2m1 0h2m1 0h1m1 0h3m1 0h1m1 0h1m1 0h1m2 0h2m1 0h1m2 0h1m1 0h1m2 0h1m5 0h3m2 0h3m4 0h1m6 0h1m1 0h2M1 45.5h3m1 0h1m1 0h2m2 0h5m5 0h2m1 0h1m1 0h3m1 0h1m1 0h1m3 0h1m3 0h1m1 0h6m1 0h1m2 0h1m6 0h1m4 0h3m2 0h1m1 0h3m1 0h2M2 46.5h1m1 0h3m2 0h1m3 0h2m1 0h2m15 0h2m1 0h1m1 0h1m2 0h5m1 0h3m1 0h2m4 0h3m1 0h1m1 0h2m2 0h2m4 0h1m2 0h2M1 47.5h1m2 0h8m1 0h2m1 0h2m1 0h1m1 0h1m1 0h7m2 0h2m1 0h2m2 0h2m1 0h2m2 0h10m5 0h2m1 0h11M1 48.5h1m1 0h3m3 0h1m1 0h1m1 0h2m1 0h6m1 0h3m3 0h2m5 0h1m2 0h9m3 0h2m2 0h3m2 0h4m4 0h2m3 0h1m3 0h1M1 49.5h1m2 0h2m1 0h1m1 0h2m1 0h2m2 0h1m2 0h1m2 0h1m2 0h1m1 0h1m1 0h5m2 0h1m2 0h1m1 0h1m4 0h2m1 0h1m1 0h5m1 0h1m1 0h1m1 0h4m2 0h1m1 0h1m1 0h1m1 0h1m1 0h1m1 0h1M1 50.5h1m1 0h1m1 0h1m3 0h2m3 0h6m1 0h2m2 0h1m3 0h3m2 0h3m1 0h1m1 0h1m1 0h1m1 0h2m1 0h1m3 0h2m4 0h2m3 0h1m1 0h1m4 0h1m3 0h1m2 0h2M1 51.5h1m2 0h6m3 0h1m1 0h1m1 0h1m2 0h2m1 0h1m1 0h10m1 0h1m1 0h3m1 0h1m4 0h6m1 0h1m1 0h1m2 0h1m3 0h1m1 0h9m2 0h1M3 52.5h2m1 0h1m1 0h1m1 0h3m3 0h4m1 0h1m1 0h2m5 0h2m2 0h2m1 0h5m1 0h1m1 0h5m1 0h3m1 0h2m1 0h1m1 0h2m7 0h1m1 0h2m1 0h1M1 53.5h1m3 0h1m1 0h2m1 0h6m2 0h3m1 0h3m1 0h1m1 0h1m2 0h4m1 0h4m2 0h4m1 0h1m1 0h2m6 0h2m2 0h2m1 0h1m3 0h1m5 0h4M1 54.5h3m1 0h2m5 0h3m2 0h3m4 0h1m1 0h1m2 0h1m1 0h3m1 0h2m1 0h1m5 0h1m2 0h1m3 0h1m1 0h1m1 0h2m1 0h2m3 0h1m3 0h8m1 0h2M2 55.5h2m3 0h4m2 0h2m1 0h1m2 0h4m2 0h1m4 0h1m4 0h4m4 0h3m1 0h1m1 0h2m2 0h3m1 0h1m1 0h1m2 0h1m1 0h1m1 0h1m2 0h2m1 0h2m1 0h2M1 56.5h1m1 0h1m2 0h1m1 0h1m1 0h5m2 0h1m1 0h10m1 0h1m2 0h7m1 0h8m7 0h1m3 0h4m1 0h2m5 0h1m4 0h1M1 57.5h3m1 0h1m1 0h1m8 0h1m1 0h2m1 0h2m1 0h4m2 0h2m3 0h1m1 0h1m2 0h3m1 0h1m1 0h2m1 0h1m1 0h2m1 0h1m2 0h3m1 0h1m1 0h2m1 0h1m1 0h1m5 0h3M4 58.5h1m1 0h1m4 0h1m1 0h1m1 0h3m2 0h2m3 0h3m2 0h5m1 0h2m2 0h4m3 0h3m2 0h1m3 0h5m5 0h4m1 0h4m1 0h2M4 59.5h1m2 0h2m1 0h3m2 0h2m1 0h4m1 0h3m1 0h3m3 0h2m2 0h2m5 0h3m1 0h1m1 0h1m3 0h2m3 0h1m2 0h3m4 0h2M1 60.5h2m3 0h1m5 0h2m3 0h4m2 0h2m4 0h10m2 0h5m2 0h1m3 0h3m1 0h1m2 0h3m5 0h3m2 0h1M1 61.5h1m2 0h2m1 0h1m1 0h2m1 0h3m1 0h2m4 0h1m4 0h3m1 0h2m4 0h1m2 0h1m3 0h1m1 0h1m4 0h2m1 0h2m1 0h1m1 0h1m1 0h1m2 0h1m4 0h1m4 0h4M4 62.5h1m9 0h2m2 0h4m4 0h1m2 0h1m3 0h2m2 0h2m3 0h2m2 0h1m4 0h1m3 0h2m1 0h4m3 0h1m1 0h2m1 0h4m2 0h1M1 63.5h1m3 0h3m2 0h1m1 0h1m1 0h2m1 0h2m1 0h1m4 0h6m1 0h5m1 0h2m2 0h1m5 0h1m1 0h1m1 0h4m1 0h8m1 0h1m3 0h1m1 0h3M1 64.5h1m4 0h1m1 0h1m1 0h2m1 0h4m1 0h2m4 0h1m2 0h1m3 0h14m4 0h1m1 0h1m3 0h2m3 0h1m5 0h1m4 0h2m4 0h1M1 65.5h1m1 0h5m1 0h3m3 0h3m1 0h1m1 0h2m1 0h1m1 0h1m1 0h2m3 0h1m1 0h2m2 0h2m1 0h1m2 0h2m2 0h4m5 0h2m1 0h2m1 0h3m1 0h1m3 0h4m1 0h1M1 66.5h1m2 0h3m2 0h2m2 0h5m1 0h2m1 0h1m5 0h2m7 0h2m7 0h3m1 0h2m1 0h1m1 0h1m1 0h2m1 0h2m1 0h3m2 0h2m1 0h1m1 0h1m2 0h2M2 67.5h1m2 0h6m4 0h1m1 0h2m4 0h1m2 0h2m1 0h1m1 0h1m5 0h2m2 0h1m1 0h1m1 0h1m2 0h1m1 0h2m1 0h2m6 0h2m2 0h2m3 0h1m1 0h3m1 0h1M5 68.5h1m2 0h2m1 0h1m1 0h3m1 0h3m1 0h3m2 0h2m1 0h2m1 0h1m1 0h2m1 0h1m3 0h2m1 0h1m1 0h1m2 0h1m5 0h4m1 0h1m1 0h1m4 0h1m1 0h3m1 0h1M2 69.5h4m1 0h2m2 0h10m1 0h1m2 0h5m2 0h2m1 0h1m1 0h1m1 0h3m1 0h3m1 0h6m2 0h1m2 0h1m5 0h1m1 0h2m1 0h7m1 0h1M9 70.5h2m3 0h4m1 0h1m2 0h1m2 0h1m3 0h1m1 0h1m3 0h2m6 0h2m1 0h2m3 0h2m5 0h4m1 0h2m4 0h1m3 0h2m2 0h1M1 71.5h7m3 0h2m4 0h1m1 0h1m1 0h1m3 0h1m1 0h1m1 0h3m2 0h1m1 0h1m2 0h2m1 0h3m2 0h1m1 0h1m1 0h1m1 0h2m1 0h1m4 0h9m1 0h1m1 0h1M1 72.5h1m5 0h1m2 0h1m2 0h2m2 0h1m3 0h1m2 0h2m3 0h1m1 0h2m1 0h3m7 0h2m1 0h1m3 0h1m4 0h5m6 0h3m3 0h1m3 0h1M1 73.5h1m1 0h3m1 0h1m1 0h1m1 0h1m1 0h2m1 0h1m1 0h3m1 0h9m2 0h1m4 0h4m1 0h3m1 0h8m3 0h1m3 0h6m1 0h7M1 74.5h1m1 0h3m1 0h1m1 0h2m1 0h1m2 0h5m1 0h2m2 0h3m1 0h2m1 0h1m1 0h2m1 0h1m2 0h1m2 0h2m1 0h1m2 0h2m1 0h1m2 0h2m1 0h4m2 0h1m5 0h1m3 0h1m1 0h1M1 75.5h1m1 0h3m1 0h1m1 0h1m1 0h2m1 0h2m2 0h1m1 0h1m1 0h2m3 0h1m2 0h1m2 0h2m2 0h1m1 0h2m3 0h1m2 0h3m2 0h1m1 0h2m5 0h2m1 0h1m1 0h3m2 0h4m1 0h1M1 76.5h1m5 0h1m3 0h1m2 0h1m1 0h1m2 0h1m2 0h1m1 0h1m1 0h1m1 0h1m1 0h2m1 0h1m1 0h1m2 0h1m1 0h2m3 0h1m3 0h1m1 0h1m1 0h1m2 0h1m1 0h1m1 0h2m1 0h1m1 0h1m1 0h6m3 0h1M1 77.5h7m4 0h3m1 0h3m1 0h1m6 0h4m3 0h6m1 0h1m1 0h4m1 0h1m1 0h3m1 0h2m1 0h3m4 0h2m4 0h1m1 0h1m1 0h2"/>
</svg>
  <text x="800" y="2070" text-anchor="middle" fill="#334c3d" font-family="Arial, Helvetica, sans-serif" font-size="42" font-weight="800">Thank you for supporting local music education</text>
</svg>
