<svg xmlns="http://www.w3.org/2000/svg" viewBox="0 0 1600 1000" role="img" aria-labelledby="title desc">
  <title id="title">Piano and violin studio</title>
  <desc id="desc">Warm illustrated music studio with piano, violin, books, and lamp.</desc>
  <defs>
    <linearGradient id="wall" x1="0" y1="0" x2="1" y2="1">
      <stop offset="0" stop-color="#efe5d5"/>
      <stop offset="1" stop-color="#c7b495"/>
    </linearGradient>
    <linearGradient id="floor" x1="0" y1="0" x2="1" y2="0">
      <stop offset="0" stop-color="#7b5635"/>
      <stop offset="1" stop-color="#3d281a"/>
    </linearGradient>
    <linearGradient id="piano" x1="0" y1="0" x2="1" y2="1">
      <stop offset="0" stop-color="#1a1714"/>
      <stop offset="1" stop-color="#050505"/>
    </linearGradient>
    <filter id="soft" x="-20%" y="-20%" width="140%" height="140%">
      <feGaussianBlur stdDeviation="18"/>
    </filter>
  </defs>
  <rect width="1600" height="1000" fill="url(#wall)"/>
  <rect y="760" width="1600" height="240" fill="url(#floor)"/>
  <rect x="880" y="135" width="275" height="600" rx="12" fill="#6d472b"/>
  <rect x="910" y="165" width="215" height="28" fill="#b9955e"/>
  <rect x="910" y="235" width="215" height="28" fill="#b9955e"/>
  <rect x="910" y="305" width="215" height="28" fill="#b9955e"/>
  <rect x="910" y="375" width="215" height="28" fill="#b9955e"/>
  <g fill="#f1dcc8">
    <rect x="925" y="175" width="18" height="60"/>
    <rect x="954" y="170" width="20" height="65"/>
    <rect x="990" y="176" width="17" height="59"/>
    <rect x="1025" y="166" width="23" height="69"/>
    <rect x="1067" y="172" width="15" height="63"/>
    <rect x="1098" y="178" width="16" height="57"/>
  </g>
  <rect x="990" y="640" width="555" height="165" rx="8" fill="url(#piano)"/>
  <rect x="1015" y="610" width="500" height="62" rx="6" fill="#0b0b0a"/>
  <rect x="1060" y="690" width="405" height="75" rx="3" fill="#f8f3e8"/>
  <g fill="#111">
    <rect x="1080" y="690" width="14" height="50"/>
    <rect x="1115" y="690" width="14" height="50"/>
    <rect x="1150" y="690" width="14" height="50"/>
    <rect x="1216" y="690" width="14" height="50"/>
    <rect x="1251" y="690" width="14" height="50"/>
    <rect x="1286" y="690" width="14" height="50"/>
    <rect x="1352" y="690" width="14" height="50"/>
    <rect x="1387" y="690" width="14" height="50"/>
  </g>
  <ellipse cx="1240" cy="835" rx="250" ry="38" fill="#090908" opacity=".45" filter="url(#soft)"/>
  <rect x="1185" y="800" width="250" height="95" rx="16" fill="#141414"/>
  <line x1="1220" y1="895" x2="1185" y2="985" stroke="#111" stroke-width="20" stroke-linecap="round"/>
  <line x1="1400" y1="895" x2="1442" y2="985" stroke="#111" stroke-width="20" stroke-linecap="round"/>
  <rect x="655" y="195" width="155" height="500" rx="6" fill="#e7d9c5"/>
  <rect x="680" y="220" width="105" height="440" fill="#c9d4cf"/>
  <path d="M585 635c-52 5-92 56-86 119 5 59 51 99 100 94 49-4 86-53 81-112-6-62-43-106-95-101z" fill="#9c5e29"/>
  <path d="M610 641c26 40 43 92 36 142" fill="none" stroke="#351c10" stroke-width="10" stroke-linecap="round"/>
  <path d="M567 635c-22 44-33 94-15 145" fill="none" stroke="#351c10" stroke-width="10" stroke-linecap="round"/>
  <line x1="589" y1="620" x2="634" y2="310" stroke="#31180e" stroke-width="14" stroke-linecap="round"/>
  <line x1="640" y1="302" x2="704" y2="262" stroke="#27130c" stroke-width="8" stroke-linecap="round"/>
  <line x1="610" y1="310" x2="740" y2="590" stroke="#22120c" stroke-width="6" stroke-linecap="round"/>
  <path d="M1290 210h95l22 110h-140z" fill="#f5dca3"/>
  <rect x="1328" y="320" width="18" height="170" fill="#9d6c2f"/>
  <ellipse cx="1337" cy="498" rx="64" ry="14" fill="#5d3a1f"/>
  <circle cx="1338" cy="188" r="28" fill="#f8e5b4" opacity=".8" filter="url(#soft)"/>
  <rect x="110" y="120" width="320" height="540" rx="28" fill="#22352a" opacity=".16"/>
  <circle cx="160" cy="692" r="115" fill="#334c3d" opacity=".22"/>
  <circle cx="112" cy="602" r="75" fill="#334c3d" opacity=".16"/>
  <rect x="0" y="0" width="1600" height="1000" fill="#000" opacity=".08"/>
</svg>
